<?xml version="1.0" encoding="UTF-8" standalone="no"?><svg xmlns="http://www.w3.org/2000/svg" xmlns:xlink="http://www.w3.org/1999/xlink" fill="#2679b1" height="280.3" preserveAspectRatio="xMidYMid meet" version="1" viewBox="0.0 0.0 280.3 280.3" width="280.3" zoomAndPan="magnify"><g id="change1_1"><path d="M278.09,137.77c-0.93-1-23.07-24.42-51.06-24.42c-22.84,0-41.78,15.59-48.48,21.87l-17.73-17.73l0,0l-15.73-15.73 c1.57-1.69,3.74-4.16,6.11-7.28c1.43-1.88,2.8-3.83,4.06-5.77c7.77-11.97,11.71-23.89,11.71-35.43c0-27.99-23.42-50.13-24.42-51.06 L140.16,0l-2.39,2.22c-1,0.93-24.42,23.07-24.42,51.06c0,22.84,15.59,41.78,21.87,48.48l-15.72,15.72l0,0l-1.01,1.01l-1.01,1.01l0,0 l-15.72,15.72c-6.7-6.28-25.65-21.87-48.48-21.87c-27.99,0-50.13,23.42-51.06,24.42L0,140.16l2.22,2.39 c0.93,1,23.07,24.42,51.06,24.42c22.84,0,41.78-15.59,48.48-21.87l15.72,15.72l17.73,17.73c-6.28,6.7-21.87,25.65-21.87,48.48 c0,27.99,23.42,50.13,24.42,51.06l2.39,2.22l2.39-2.22c1-0.93,24.42-23.07,24.42-51.06c0-22.84-15.59-41.78-21.87-48.48l16.53-16.53 l16.93-16.93c6.7,6.28,25.65,21.87,48.48,21.87c27.99,0,50.13-23.42,51.06-24.42l2.22-2.39L278.09,137.77z M140.16,9.8 c5.74,6.23,19.81,23.55,19.81,43.48c0,12.66-5.75,24.18-10.58,31.62c-1.17,1.8-2.44,3.6-3.76,5.35c-2.1,2.76-4.03,4.98-5.46,6.52 c-5.73-6.23-19.81-23.55-19.81-43.49C120.35,33.36,134.42,16.03,140.16,9.8z M53.28,159.96c-19.93,0-37.25-14.07-43.48-19.81 c6.23-5.74,23.55-19.81,43.48-19.81s37.25,14.07,43.48,19.81C90.53,145.89,73.21,159.96,53.28,159.96z M140.16,270.51 c-5.74-6.23-19.81-23.55-19.81-43.48c0-19.93,14.07-37.25,19.81-43.48c5.74,6.23,19.81,23.55,19.81,43.48 S145.89,264.28,140.16,270.51z M157.2,156.53l-17.05,17.04l-17.72-17.72l-15.7-15.7l16.71-16.71l16.71-16.71l16.71,16.71 l16.71,16.71L157.2,156.53z M227.03,159.96c-19.93,0-37.25-14.07-43.48-19.81c6.23-5.74,23.55-19.81,43.48-19.81 c19.93,0,37.25,14.07,43.48,19.81C264.28,145.89,246.95,159.96,227.03,159.96z M225.09,78.48c9.63,0,17.47-7.84,17.47-17.47 c0-9.63-7.84-17.47-17.47-17.47s-17.47,7.84-17.47,17.47C207.62,70.64,215.46,78.48,225.09,78.48z M225.09,50.54 c5.77,0,10.47,4.7,10.47,10.47c0,5.77-4.7,10.47-10.47,10.47s-10.47-4.7-10.47-10.47C214.62,55.23,219.31,50.54,225.09,50.54z M55.22,78.48c9.63,0,17.47-7.84,17.47-17.47c0-9.63-7.84-17.47-17.47-17.47c-9.63,0-17.47,7.84-17.47,17.47 C37.75,70.64,45.59,78.48,55.22,78.48z M55.22,50.54c5.77,0,10.47,4.7,10.47,10.47c0,5.77-4.7,10.47-10.47,10.47 c-5.77,0-10.47-4.7-10.47-10.47C44.75,55.23,49.45,50.54,55.22,50.54z M225.09,201.83c-9.63,0-17.47,7.84-17.47,17.47 c0,9.63,7.84,17.47,17.47,17.47s17.47-7.84,17.47-17.47C242.56,209.67,234.72,201.83,225.09,201.83z M225.09,229.77 c-5.77,0-10.47-4.7-10.47-10.47s4.7-10.47,10.47-10.47s10.47,4.7,10.47,10.47S230.86,229.77,225.09,229.77z M55.22,201.83 c-9.63,0-17.47,7.84-17.47,17.47c0,9.63,7.84,17.47,17.47,17.47c9.63,0,17.47-7.84,17.47-17.47 C72.69,209.67,64.86,201.83,55.22,201.83z M55.22,229.77c-5.77,0-10.47-4.7-10.47-10.47s4.7-10.47,10.47-10.47 c5.77,0,10.47,4.7,10.47,10.47S61,229.77,55.22,229.77z" fill="inherit"/></g></svg>