<?xml version="1.0" encoding="UTF-8"?><svg xmlns="http://www.w3.org/2000/svg" xmlns:xlink="http://www.w3.org/1999/xlink" height="786.4" preserveAspectRatio="xMidYMid meet" version="1.0" viewBox="0.0 0.0 535.1 786.4" width="535.1" zoomAndPan="magnify"><defs><clipPath id="a"><path d="M 0 0 L 535.089844 0 L 535.089844 786.351562 L 0 786.351562 Z M 0 0"/></clipPath><clipPath id="b"><path d="M 515.582031 586.59375 L 485.933594 609.671875 L 515.582031 479.089844 Z M 348.503906 762.453125 L 298.242188 762.453125 L 461.238281 635.585938 Z M 267.542969 779.65625 L 252.601562 768.027344 L 282.484375 768.027344 Z M 186.582031 762.453125 L 72.617188 634.628906 L 236.84375 762.453125 Z M 19.503906 481.144531 L 47.761719 608.585938 L 19.503906 586.59375 Z M 4.914062 393.167969 L 14.746094 348.515625 L 14.746094 437.511719 Z M 19.503906 199.753906 L 47.359375 178.070312 L 19.503906 304.585938 Z M 186.578125 23.890625 L 236.84375 23.890625 L 70.105469 153.675781 Z M 267.542969 6.6875 L 282.480469 18.316406 L 252.605469 18.316406 Z M 348.503906 23.890625 L 461.574219 151.019531 L 298.242188 23.890625 Z M 515.582031 304.660156 L 487.679688 178.035156 L 515.582031 199.753906 Z M 289.644531 762.453125 L 245.441406 762.453125 L 53.703125 613.210938 L 19.503906 458.972656 L 19.503906 326.90625 L 53.289062 173.457031 L 245.441406 23.890625 L 289.644531 23.890625 L 480.917969 172.773438 L 481.835938 173.800781 L 515.582031 326.960938 L 515.582031 457.402344 L 479.953125 614.328125 Z M 530.167969 393.160156 L 520.339844 436.449219 L 520.339844 348.554688 Z M 535.085938 393.183594 L 520.339844 326.253906 L 520.339844 196.761719 L 483.90625 168.402344 L 351.105469 19.09375 L 350.414062 18.316406 L 291.082031 18.316406 L 268.859375 1.019531 L 267.542969 -0.00390625 L 244.003906 18.316406 L 184.675781 18.316406 L 49.328125 169.132812 L 49.136719 169.996094 L 15.808594 195.9375 L 14.746094 196.761719 L 14.746094 326.199219 L 0 393.175781 L 14.746094 459.683594 L 14.746094 589.582031 L 50.132812 617.128906 L 183.984375 767.253906 L 184.671875 768.027344 L 244.003906 768.027344 L 266.226562 785.324219 L 267.542969 786.351562 L 291.082031 768.027344 L 350.414062 768.027344 L 483.511719 618.25 L 519.277344 590.410156 L 520.339844 589.582031 L 520.339844 458.132812 Z M 535.085938 393.183594"/></clipPath><clipPath id="c"><path d="M 515.582031 586.59375 L 485.933594 609.671875 L 515.582031 479.089844 Z M 348.503906 762.453125 L 298.242188 762.453125 L 461.238281 635.585938 Z M 267.542969 779.65625 L 252.601562 768.027344 L 282.484375 768.027344 Z M 186.582031 762.453125 L 72.617188 634.628906 L 236.84375 762.453125 Z M 19.503906 481.144531 L 47.761719 608.585938 L 19.503906 586.59375 Z M 4.914062 393.167969 L 14.746094 348.515625 L 14.746094 437.511719 Z M 19.503906 199.753906 L 47.359375 178.070312 L 19.503906 304.585938 Z M 186.578125 23.890625 L 236.84375 23.890625 L 70.105469 153.675781 Z M 267.542969 6.6875 L 282.480469 18.316406 L 252.605469 18.316406 Z M 348.503906 23.890625 L 461.574219 151.019531 L 298.242188 23.890625 Z M 515.582031 304.660156 L 487.679688 178.035156 L 515.582031 199.753906 Z M 289.644531 762.453125 L 245.441406 762.453125 L 53.703125 613.210938 L 19.503906 458.972656 L 19.503906 326.90625 L 53.289062 173.457031 L 245.441406 23.890625 L 289.644531 23.890625 L 480.917969 172.773438 L 481.835938 173.800781 L 515.582031 326.960938 L 515.582031 457.402344 L 479.953125 614.328125 Z M 530.167969 393.160156 L 520.339844 436.449219 L 520.339844 348.554688 Z M 535.085938 393.183594 L 520.339844 326.253906 L 520.339844 196.761719 L 483.90625 168.402344 L 351.105469 19.09375 L 350.414062 18.316406 L 291.082031 18.316406 L 268.859375 1.019531 L 267.542969 -0.00390625 L 244.003906 18.316406 L 184.675781 18.316406 L 49.328125 169.132812 L 49.136719 169.996094 L 15.808594 195.9375 L 14.746094 196.761719 L 14.746094 326.199219 L 0 393.175781 L 14.746094 459.683594 L 14.746094 589.582031 L 50.132812 617.128906 L 183.984375 767.253906 L 184.671875 768.027344 L 244.003906 768.027344 L 266.226562 785.324219 L 267.542969 786.351562 L 291.082031 768.027344 L 350.414062 768.027344 L 483.511719 618.25 L 519.277344 590.410156 L 520.339844 589.582031 L 520.339844 458.132812 L 535.085938 393.183594"/></clipPath><linearGradient gradientTransform="rotate(-45 770.207 264.327) scale(647.325)" gradientUnits="userSpaceOnUse" id="d" x1="-.222" x2="1.222" xlink:actuate="onLoad" xlink:show="other" xlink:type="simple" xmlns:xlink="http://www.w3.org/1999/xlink" y1="0" y2="0"><stop offset="0" stop-color="#644328"/><stop offset=".125" stop-color="#644328"/><stop offset=".141" stop-color="#644328"/><stop offset=".148" stop-color="#644328"/><stop offset=".152" stop-color="#664429"/><stop offset=".156" stop-color="#674529"/><stop offset=".16" stop-color="#69482b"/><stop offset=".164" stop-color="#6b4b2e"/><stop offset=".168" stop-color="#6e4d30"/><stop offset=".172" stop-color="#705032"/><stop offset=".176" stop-color="#735334"/><stop offset=".18" stop-color="#765536"/><stop offset=".184" stop-color="#785839"/><stop offset=".188" stop-color="#7b5b3b"/><stop offset=".191" stop-color="#7d5e3d"/><stop offset=".195" stop-color="#806140"/><stop offset=".199" stop-color="#836342"/><stop offset=".203" stop-color="#856644"/><stop offset=".207" stop-color="#886947"/><stop offset=".211" stop-color="#8b6d49"/><stop offset=".215" stop-color="#8d704c"/><stop offset=".219" stop-color="#90724e"/><stop offset=".223" stop-color="#937651"/><stop offset=".227" stop-color="#967953"/><stop offset=".23" stop-color="#997b56"/><stop offset=".234" stop-color="#9b7e58"/><stop offset=".238" stop-color="#9d815b"/><stop offset=".242" stop-color="#a0835d"/><stop offset=".246" stop-color="#a2865e"/><stop offset=".25" stop-color="#a48960"/><stop offset=".254" stop-color="#a68b61"/><stop offset=".258" stop-color="#a88e63"/><stop offset=".262" stop-color="#aa9065"/><stop offset=".266" stop-color="#ad9266"/><stop offset=".27" stop-color="#af9467"/><stop offset=".273" stop-color="#b09669"/><stop offset=".277" stop-color="#b2996b"/><stop offset=".281" stop-color="#b49b6d"/><stop offset=".285" stop-color="#b69e6e"/><stop offset=".289" stop-color="#b9a070"/><stop offset=".293" stop-color="#baa372"/><stop offset=".297" stop-color="#bca574"/><stop offset=".301" stop-color="#bea776"/><stop offset=".305" stop-color="#c0a977"/><stop offset=".309" stop-color="#c2ab79"/><stop offset=".313" stop-color="#c4ae7b"/><stop offset=".316" stop-color="#c3ad79"/><stop offset=".32" stop-color="#c2ab77"/><stop offset=".324" stop-color="#c0aa75"/><stop offset=".328" stop-color="#bfa973"/><stop offset=".332" stop-color="#bea771"/><stop offset=".336" stop-color="#bda66f"/><stop offset=".34" stop-color="#bba56d"/><stop offset=".344" stop-color="#baa36b"/><stop offset=".348" stop-color="#b9a268"/><stop offset=".352" stop-color="#b7a066"/><stop offset=".355" stop-color="#b69e64"/><stop offset=".359" stop-color="#b49d62"/><stop offset=".363" stop-color="#b39b60"/><stop offset=".367" stop-color="#b29a5d"/><stop offset=".371" stop-color="#b0985b"/><stop offset=".375" stop-color="#af9759"/><stop offset=".379" stop-color="#ad9558"/><stop offset=".383" stop-color="#ac9356"/><stop offset=".387" stop-color="#aa9255"/><stop offset=".391" stop-color="#a99053"/><stop offset=".395" stop-color="#a78f51"/><stop offset=".398" stop-color="#a68d50"/><stop offset=".402" stop-color="#a58c4e"/><stop offset=".406" stop-color="#a38a4c"/><stop offset=".41" stop-color="#a2894a"/><stop offset=".414" stop-color="#a08748"/><stop offset=".422" stop-color="#a18748"/><stop offset=".426" stop-color="#a38a4b"/><stop offset=".43" stop-color="#a68c4f"/><stop offset=".434" stop-color="#a88f51"/><stop offset=".438" stop-color="#aa9154"/><stop offset=".441" stop-color="#ac9456"/><stop offset=".445" stop-color="#ae9659"/><stop offset=".449" stop-color="#b0995c"/><stop offset=".453" stop-color="#b39b5f"/><stop offset=".457" stop-color="#b59d62"/><stop offset=".461" stop-color="#b7a066"/><stop offset=".465" stop-color="#b9a269"/><stop offset=".469" stop-color="#bba56d"/><stop offset=".473" stop-color="#bda770"/><stop offset=".477" stop-color="#bea973"/><stop offset=".48" stop-color="#c1ab76"/><stop offset=".484" stop-color="#c3ad7a"/><stop offset=".488" stop-color="#c5b07d"/><stop offset=".492" stop-color="#c7b380"/><stop offset=".496" stop-color="#c9b583"/><stop offset=".5" stop-color="#cbb886"/><stop offset=".504" stop-color="#ceba89"/><stop offset=".508" stop-color="#d0bc8c"/><stop offset=".512" stop-color="#d2bf8f"/><stop offset=".516" stop-color="#d4c193"/><stop offset=".52" stop-color="#d6c496"/><stop offset=".523" stop-color="#d9c699"/><stop offset=".527" stop-color="#dcc99d"/><stop offset=".531" stop-color="#decda1"/><stop offset=".535" stop-color="#e0cfa4"/><stop offset=".539" stop-color="#e2d1a8"/><stop offset=".543" stop-color="#e2d1a7"/><stop offset=".547" stop-color="#e2d0a7"/><stop offset=".551" stop-color="#decca3"/><stop offset=".555" stop-color="#dbc89f"/><stop offset=".559" stop-color="#d8c49b"/><stop offset=".563" stop-color="#d4c098"/><stop offset=".566" stop-color="#d1bc94"/><stop offset=".57" stop-color="#ceb891"/><stop offset=".574" stop-color="#cbb58d"/><stop offset=".578" stop-color="#c7b18a"/><stop offset=".582" stop-color="#c5ae86"/><stop offset=".586" stop-color="#c2aa83"/><stop offset=".59" stop-color="#bfa77f"/><stop offset=".594" stop-color="#bca47c"/><stop offset=".598" stop-color="#b8a078"/><stop offset=".602" stop-color="#b59c73"/><stop offset=".605" stop-color="#b19870"/><stop offset=".609" stop-color="#ae946c"/><stop offset=".613" stop-color="#ab9169"/><stop offset=".617" stop-color="#a78d66"/><stop offset=".621" stop-color="#a48962"/><stop offset=".625" stop-color="#a1855e"/><stop offset=".688" stop-color="#a1855e"/><stop offset=".691" stop-color="#a38760"/><stop offset=".695" stop-color="#a58962"/><stop offset=".699" stop-color="#a78c64"/><stop offset=".703" stop-color="#a88e66"/><stop offset=".707" stop-color="#aa8f68"/><stop offset=".711" stop-color="#ac916a"/><stop offset=".715" stop-color="#ae936c"/><stop offset=".719" stop-color="#af956e"/><stop offset=".723" stop-color="#b19770"/><stop offset=".727" stop-color="#b39972"/><stop offset=".73" stop-color="#b49b74"/><stop offset=".734" stop-color="#b69d76"/><stop offset=".738" stop-color="#b89f78"/><stop offset=".742" stop-color="#baa17a"/><stop offset=".746" stop-color="#bca37c"/><stop offset=".75" stop-color="#bda57e"/><stop offset=".754" stop-color="#bfa780"/><stop offset=".758" stop-color="#c0a981"/><stop offset=".762" stop-color="#c2ab84"/><stop offset=".766" stop-color="#c4ac86"/><stop offset=".77" stop-color="#c5ae87"/><stop offset=".773" stop-color="#c7b089"/><stop offset=".777" stop-color="#c9b28b"/><stop offset=".781" stop-color="#cab48d"/><stop offset=".789" stop-color="#cab48d"/><stop offset=".793" stop-color="#c6ac86"/><stop offset=".797" stop-color="#c1a57f"/><stop offset=".801" stop-color="#bb9d77"/><stop offset=".805" stop-color="#b49670"/><stop offset=".809" stop-color="#b08e68"/><stop offset=".813" stop-color="#ab8761"/><stop offset=".816" stop-color="#a57f5a"/><stop offset=".82" stop-color="#a07753"/><stop offset=".824" stop-color="#9a6f4c"/><stop offset=".828" stop-color="#946746"/><stop offset=".832" stop-color="#8e6040"/><stop offset=".836" stop-color="#895839"/><stop offset=".84" stop-color="#845033"/><stop offset=".844" stop-color="#7f492d"/><stop offset=".848" stop-color="#7d462b"/><stop offset=".852" stop-color="#7c442a"/><stop offset=".859" stop-color="#7c442a"/><stop offset=".875" stop-color="#7c442a"/><stop offset="1" stop-color="#7c442a"/></linearGradient></defs><g><g clip-path="url(#a)"><g clip-path="url(#b)"><g clip-path="url(#c)"><path d="M -393.175781 393.175781 L 267.542969 1053.894531 L 928.261719 393.175781 L 267.542969 -267.542969 Z M -393.175781 393.175781" fill="url(#d)"/></g></g></g></g></svg>