<?xml version="1.0" encoding="UTF-8" standalone="no"?><svg xmlns="http://www.w3.org/2000/svg" xmlns:xlink="http://www.w3.org/1999/xlink" fill="#ffffff" height="323.8" preserveAspectRatio="xMidYMid meet" version="1" viewBox="-5.1 -10.4 364.9 323.8" width="364.9" zoomAndPan="magnify"><g id="change1_1"><path d="M161.4,107.5c-2.1-6.2-6.4-13.6-12-19c-4.1-3.9-8.9-6.8-13.9-7.8c-8.9-1.7-15.7,0.7-23.3,5c-16.2,9.2-24.4,25-28.4,42.8 c-2,8.8-2.9,18.1-3.4,27.2c-2.6-5.3-6.2-10.1-11.4-13.9c-8.5-6.2-21-7.7-32.9-5.4c-11.8,2.3-22.9,8.2-29.1,16.2 c-12.1,15.6-7,35.7,6.2,55.7C31,235.3,63.2,262,75.8,274.6c4.4,4.4,18.7,23.4,26.8,30.4c2.1,1.8,3.9,2.9,5.4,3.3 c1.4,0.5,2.7,0.5,3.8,0.3c1.1-0.2,2.6-0.9,4.1-2.5c1.2-1.4,2.8-4,4.5-7.6c8.1-17.2,20.9-59.1,22.2-64c5.1-18.7,13.1-39.8,18.2-61.3 C166.1,150.9,168.3,128.2,161.4,107.5z M150.6,170.8c-5.1,21.3-13.1,42.4-18.1,61c-1.1,4.2-10.8,36-18.5,55.2 c-1.5,3.6-3.4,7.5-4.7,9.8c-0.9-0.8-2-1.7-2.8-2.5c-8.2-8.3-19.4-23.2-23.2-27c-12.3-12.3-43.9-38.3-61.4-64.7 c-10.4-15.6-16.2-31.2-6.7-43.4c4.8-6.2,13.7-10.6,22.8-12.4c9-1.7,18.4-1,24.8,3.6c7.5,5.4,10,13.5,12.6,21.9 c0.9,2.8,2.3,5.6,4.6,7.1c0.1,2.8,2.4,5,5.2,5c2.9,0,5.3-2.3,5.3-5.2c0-14.8-0.1-32.3,3.4-48.2c3.4-14.8,9.8-28.3,23.3-36 c5.3-3,10-5,16.2-3.8c3.1,0.6,6,2.5,8.6,5c4.4,4.2,7.8,10,9.4,14.8C157.7,129.7,155.5,150.4,150.6,170.8z M304.5,188.8 c-8.9-10.2-20.9-8.7-32.2-0.9c-8.6,5.9-16.7,15.6-21.8,24.7c-0.4,0.7-0.8,1.5-1.2,2.2c-0.7-3.3-1.6-6.5-3-8.4 c-14.5-20-44.3-20-54.3,3.2c-4.4,10.2-1.2,21.8,5.7,32.9c9,14.6,24.3,28.5,31.7,37.2c7.5,8.8,12.4,19.1,19.2,28.2 c0.2,0.7,0.7,1.9,1.1,2.4c0.8,1.1,1.8,1.9,2.9,2.3c1.4,0.5,3.3,0.8,5.7-0.8c4.2-2.8,10.9-11.8,17.9-23.6 c15.5-26.2,33.6-66.6,34.5-77.9C311.2,203.9,308.8,193.7,304.5,188.8z M300.2,209.4c-0.8,9.1-13.8,38.2-26.6,61.9 c-5.2,9.6-10.3,18.2-14.8,24.4c-1.1,1.6-2.2,3-3.1,4.1c-6.3-8.8-11.2-18.6-18.4-27.1c-7.1-8.3-22-21.8-30.7-35.9 c-4.9-8-8.1-16-5-23.3c6.6-15.5,26.6-14.6,36.2-1.2c0.7,1,0.9,2.7,1.2,4.4c0.6,3,1.1,6,2.1,8.2c0.9,2.1,2.1,3.6,3.6,4.5l0,0.4 c0,2.9,2.3,5.2,5.2,5.2c2.9,0,5.2-2.3,5.2-5.2c0-3.3,1.8-7.7,4.4-12.4c4.4-7.8,11.2-16.1,18.6-21.1c6.5-4.4,13.4-6.6,18.4-0.8 C299.4,198.8,300.5,205.3,300.2,209.4z M354,52.3c-5.1-5.4-14.1-7.6-24.7-6.6c-12.7,1.1-28,6.5-40.1,13.2c2.6-8.4,2.8-18.6,2-26.6 c-3.3-32.9-42.8-42.7-64.1-19.8c-11,11.9-16.8,27.7-19.9,44.8c-4.4,24.3-3.3,51.3-5.3,72.3c-0.8,8.4-1.3,16.9-2,25.2 c0,0.8-0.7,2.4-1.1,4.1c-0.5,1.9-0.8,3.7-0.7,5.2c0.1,2.2,0.9,3.9,2,5c1.1,1.1,2.6,1.8,4.5,1.8c2.2,0,5.9-1.8,6.9-2.3 c14.4-8.7,31.2-14.2,46.9-20.4c17.3-6.9,34.5-15.4,50.9-24.4c10.3-5.7,20.2-11.7,29.1-19.4c10.6-9.2,19-19.7,20.6-34.3 C359.8,61.9,357.7,56.3,354,52.3z M348.6,68.8c-1.2,11.7-8.4,20-17,27.5c-8.3,7.3-17.6,12.8-27.3,18.2c-16,8.8-32.8,17.1-49.8,23.9 c-14.8,5.9-30.5,11.2-44.4,18.9c0.1-0.6,0.2-1.2,0.3-1.5c0.7-8.3,1.2-16.8,2-25.1c1.6-17.4,1.1-38.9,3.4-59.5 c2.2-19.5,6.8-38.3,19-51.5c15.2-16.4,43.6-9.8,46,13.7c0.8,8.2,0.7,19.4-3.4,26.8c-1.5,2.8-4.8,6-7,9.3c-2.3,3.3-3.7,6.7-3.7,9.9 c0,1.8,0.9,3.4,2.3,4.3c0.4,0.3,0.8,0.6,1.2,0.8c2.6,1.3,5.7,0.2,7-2.3c2.1-4.1,7.5-8.5,14.4-12.6c11.2-6.7,26.2-12.3,38.5-13.4 c6.8-0.6,12.9-0.1,16.2,3.4C348.3,61.6,349,64.7,348.6,68.8z" fill="inherit"/></g></svg>