<?xml version="1.0" encoding="UTF-8" standalone="no"?><svg xmlns="http://www.w3.org/2000/svg" xmlns:xlink="http://www.w3.org/1999/xlink" fill="#000000" height="557.6" preserveAspectRatio="xMidYMid meet" version="1" viewBox="0.0 0.0 354.6 557.6" width="354.6" zoomAndPan="magnify"><g id="change1_1"><path d="M297.57,523.092c0,0,3.661,24.057-59.619,23.534c-14.12,7.322-28.763,10.982-53.866,4.707 c-33.673-8.418-38.7-22.488-38.7-22.488s-18.271-0.659-47.531-1.578c4.16-15.194,6.87-55.818,6.87-55.818 s30.802-88.983,43.811-128.84c0.125-20.75,0.071-38.42-0.274-49.624c-1.493-48.507-10.078-88.466-10.911-92.245 c-0.057,0.012-0.116,0.003-0.174-0.015l-21.442,63.936c-1.717,19.573-2.884,39.957-3.95,61.141c0,0-11.505,11.505-18.827,50.728 c-7.41,39.697-9.936,92.827-9.936,92.827s-19.873,35.824-23.011,53.082c-0.117,0.646-0.204,1.269-0.301,1.899 c-21.375-4.561-28.179-14.043-31.861-16.804l3.922-12.551c0,0-18.827-1.177-31.77-20.004c0,0,78.838-164.736,102.371-251.81 c13.283-49.146,49.924-113.07,57.462-125.935c0.689-8.679-1.47-15.23-3.596-22.458c-0.515-1.751-1.014-3.563-1.5-5.389 c-0.002-0.001-0.003-0.001-0.005-0.002c-0.399-1.499-0.785-3.009-1.156-4.505c-0.005-0.021-0.01-0.041-0.016-0.062 c-0.159-0.642-0.313-1.28-0.466-1.914c1.199-4.838,2.752-11.2,4.088-16.96c0.864-3.723,1.634-7.185,2.159-9.824 c0.362-1.818,0.61-3.254,0.686-4.096c0,0-2.785-17.161-11.191-29.206c1.161-0.091,2.359-0.182,3.597-0.286 c2.275,3.707,6.11,11.388,9.947,25.57c0,0,2.942,1.325,7.969,4.287c0,0,0,0,0,0c6.437,3.791,16.299,10.275,27.809,20.108 c0.277,0.237,0.551,0.467,0.83,0.708c0,0,0.126-0.186,0.349-0.519c1.966-2.935,11.714-17.625,14.189-23.829 c0.146-0.367,0.274-0.712,0.367-1.016c1.49-4.894,0.382-21.737-0.083-27.839c1.051,0.039,2.112,0.1,3.173,0.199 c0.347,6.026,0.956,18.567,0.57,26.855c0,0,2.398,1.775,5.021,4.727c1.385,1.559,2.826,3.45,4.018,5.579 c0.053,0.118,0.115,0.222,0.166,0.342c0.525,1.241,0.955,2.611,1.274,4.109c0.479,2.247,0.709,4.781,0.635,7.6 c-0.011,0.41-0.041,0.858-0.081,1.323c-0.009,0.11-0.019,0.221-0.03,0.334c-0.045,0.469-0.098,0.955-0.167,1.472 c-0.007,0.052-0.016,0.109-0.023,0.162c-0.066,0.486-0.143,0.994-0.227,1.518c-0.022,0.135-0.043,0.269-0.065,0.406 c-0.094,0.566-0.195,1.149-0.305,1.754c-0.02,0.112-0.043,0.229-0.064,0.342c-0.099,0.535-0.204,1.083-0.314,1.645 c-0.032,0.162-0.063,0.322-0.095,0.487c-0.125,0.634-0.256,1.282-0.392,1.945c-0.044,0.215-0.089,0.434-0.134,0.652 c-0.105,0.511-0.212,1.027-0.321,1.552c-0.196,0.941-0.396,1.902-0.6,2.884c-0.001,0.004-0.002,0.007-0.002,0.011 c-0.164,0.122-0.334,0.229-0.499,0.348c0.089,0.253,0.177,0.505,0.269,0.764c-1.877,9.088-3.877,19.617-3.619,28.573c0,0,0,0,0,0 c1.309,9.13,12.814,36.586,19.613,59.597c6.799,23.011,20.788,80.93,20.788,80.93s60.403,176.895,92.174,254.556 C354.574,490.668,336.532,513.025,297.57,523.092z" fill="#000000"/></g><g id="change2_1"><path d="M104.725,471.449c0,0,30.802-88.983,43.811-128.84c-0.444,73.685-3.15,186.236-3.15,186.236 s-18.271-0.659-47.531-1.578C102.014,512.073,104.725,471.449,104.725,471.449z M136.945,200.512 c0.05,0.124,0.138,0.184,0.232,0.213c0.057,0.018,0.116,0.028,0.174,0.015c0.164-0.035,0.301-0.182,0.264-0.413 c-1.314-8.095-2.754-16.137-3.545-24.31c-0.781-8.063-1.411-16.159-2.031-24.232c-0.011-0.138-0.212-0.141-0.217,0 c-0.281,8.295-0.152,16.526,0.603,24.806C133.154,184.583,133.936,193.007,136.945,200.512z M161.035,96.756 c7.156,2.155,15.012,2.148,22.416,2.365c9.058,0.266,18.156,0.13,27.2-0.441c3.15-0.199,6.353-0.445,9.429-1.191 c0.684-0.166,0.559-1.345-0.17-1.258c-6.748,0.807-13.647,0.854-20.431,1.051c-9.063,0.264-18.145,0.281-27.205-0.074 c-3.708-0.145-7.482-0.206-11.158-0.745C160.927,96.435,160.842,96.698,161.035,96.756z M294.176,479.766 c-2.2-20.078-4.758-40.112-7.328-60.146c-2.876-22.417-5.885-44.817-8.901-67.216c-2.771-20.577-5.594-41.147-8.423-61.716 c-1.918-13.942-3.971-27.862-6.074-41.776c-0.154-1.016-0.307-2.033-0.458-3.05c-0.034-0.227-0.43-0.176-0.405,0.055 c1.41,12.871,3.005,25.713,4.631,38.559c2.519,19.906,5.216,39.792,7.835,59.686c2.975,22.588,5.887,45.185,8.811,67.78 c2.648,20.46,5.175,40.935,7.771,61.402c1.774,13.988,3.596,27.988,5.061,42.013c0.107,1.025,0.234,2.054,0.303,3.083 c0.024,0.36,0.588,0.363,0.564,0C296.703,505.51,295.587,492.651,294.176,479.766z M221.35,359.078 c-5.974-35.028-13.706-69.61-23.407-103.793c-7.924-27.923-16.188-55.766-23.755-83.788c-4.272-15.821-8.094-31.89-10.072-48.177 c-0.214-1.761-0.407-3.524-0.582-5.289c-0.004-0.041-0.069-0.042-0.065,0c1.381,15.511,4.422,30.763,8.116,45.875 c6.345,25.958,13.577,51.682,20.707,77.432c4.857,17.539,9.748,35.057,13.857,52.791c3.988,17.214,7.475,34.547,10.572,51.943 c5.831,32.748,10.294,65.748,13.788,98.825c2.572,24.348,4.743,48.754,6.023,73.208c0.11,2.098,0.229,4.197,0.3,6.296 c0.038,1.1,1.752,1.106,1.715,0c-0.786-22.989-2.296-45.906-4.435-68.811C231.094,423.276,226.806,391.068,221.35,359.078z M226.991,283.039c-2.936-25.889-6.083-51.751-9.418-77.591c-2.661-20.616-5.447-41.214-8.375-61.794 c-1.888-13.269-3.81-26.534-5.775-39.791c-0.151-1.021-0.303-2.042-0.455-3.063c-0.035-0.235-0.388-0.134-0.356,0.098 c1.736,12.321,3.411,24.651,5.03,36.988c2.61,19.893,5.131,39.798,7.594,59.71c3.126,25.265,6.104,50.549,8.948,75.848 c3.214,28.585,6.19,57.198,8.968,85.829c2.902,29.907,5.481,59.843,7.819,89.799c0.286,3.667,0.565,7.335,0.838,11.003 c0.055,0.746,1.217,0.757,1.172,0c-1.796-29.973-4.192-59.909-6.954-89.808C233.339,341.157,230.286,312.085,226.991,283.039z M156.559,162.103c-2.723-14.353-5.444-28.769-7.263-43.27c-0.017-0.135-0.23-0.141-0.217,0c2.581,27.774,8.004,55.2,13.675,82.481 c6.454,31.051,13.399,61.999,20.274,92.958c3.276,14.75,6.67,29.477,9.685,44.283c0.07,0.345,0.581,0.195,0.523-0.144 c-4.822-28.307-11.06-56.337-17.286-84.36C169.159,223.475,162.396,192.879,156.559,162.103z M235.243,243.656 c-2.53-18.922-5.275-37.817-8.37-56.655c-2.722-16.571-5.63-33.116-8.944-49.579c-2.316-11.504-4.706-23.069-8.077-34.319 c-0.281-0.937-0.572-1.87-0.876-2.8c-0.009-0.026-0.05-0.015-0.042,0.012c3.238,10.387,5.33,21.158,7.417,31.822 c3.119,15.936,5.799,31.959,8.303,48.002c2.949,18.901,5.68,37.841,8.182,56.806c2.486,18.846,4.773,37.724,6.747,56.631 c1.707,16.35,3.168,32.722,4.293,49.122c0.119,1.733,0.23,3.466,0.333,5.2c0.041,0.692,1.107,0.703,1.085,0 c-0.499-15.986-1.832-31.946-3.423-47.858C239.988,281.208,237.751,262.414,235.243,243.656z M113.54,268.504 c0.023-0.081-0.101-0.115-0.126-0.035c-3.86,12.823-8.169,25.517-12.281,38.261c-4.115,12.751-8.42,25.439-12.892,38.069 c-3.824,10.798-7.862,21.516-11.86,32.25c-4.779,12.832-9.508,25.683-14.274,38.52c-5.17,13.922-10.345,27.842-15.519,41.762 c-3.314,8.917-6.553,17.865-9.932,26.758c-0.163,0.429-0.32,0.861-0.497,1.284c-0.368,0.874,1.06,1.256,1.423,0.392 c3.173-7.55,6.251-15.527,9.199-23.297c5.18-13.653,10.293-27.33,15.38-41.018c4.95-13.321,9.889-26.646,14.819-39.973 c3.236-8.748,6.462-17.503,9.606-26.285c9.092-25.404,17.238-51.147,24.314-77.185C111.761,274.833,112.637,271.666,113.54,268.504z M161.321,96.071c0.329-0.385,0.667-0.764,0.997-1.149c5.774-6.728,11.641-13.408,17.601-19.969 c5.359-5.901,10.94-11.591,16.284-17.502c0.129,0.021,0.239-0.102,0.207-0.231c0.898-0.996,1.806-1.983,2.688-2.995 c0.129-0.148-0.068-0.345-0.215-0.215c-0.967,0.852-1.9,1.739-2.848,2.611c-2.334-3.573-6.158-6.254-9.619-8.64 c-3.804-2.623-7.916-4.701-12.188-6.444c-0.034-0.014-0.057,0.043-0.025,0.06c4.014,2.104,7.819,4.607,11.458,7.304 c1.829,1.356,3.568,2.819,5.289,4.307c1.54,1.331,2.969,2.678,4.626,3.834c-1.674,1.55-3.324,3.125-4.949,4.725 c-0.695-1.192-2.22-1.919-3.329-2.638c-1.527-0.991-3.079-1.938-4.658-2.843c-3.131-1.796-6.379-3.299-9.669-4.776 c-0.025-0.011-0.047,0.024-0.022,0.037c3.104,1.677,6.09,3.6,9.04,5.533c1.435,0.941,2.852,1.912,4.251,2.906 c0.744,0.529,1.481,1.066,2.212,1.613c0.473,0.353,0.951,0.67,1.498,0.832c-3.847,3.818-7.593,7.741-11.294,11.704 c-6.135,6.571-11.939,13.314-16.941,20.779c-0.215,0.321-0.437,0.635-0.649,0.958C160.965,96.026,161.2,96.212,161.321,96.071z M171.334,91.484c-0.021,0.03,0.028,0.069,0.051,0.039c6.579-8.285,14.852-15.298,22.787-22.239 c3.977-3.479,7.956-6.962,11.781-10.61c3.733-3.56,7.537-7.355,9.919-11.989c0.068-0.132-0.093-0.258-0.205-0.158 c-3.964,3.578-7.435,7.689-11.23,11.444c-3.756,3.717-7.713,7.221-11.651,10.741C184.926,75.737,177.434,82.833,171.334,91.484z M202.003,72.399c-6.809,4.693-13.298,9.74-19.468,15.246c-0.027,0.024,0.01,0.074,0.039,0.051 c6.856-5.223,13.895-10.265,21.14-14.936c6.783-4.373,14.452-8.209,19.203-14.966c0.238-0.338-0.255-0.626-0.528-0.408 c-3.322,2.647-6.412,5.568-9.901,8.005C209.042,67.798,205.465,70.013,202.003,72.399z M77.111,303.712 c7.964-16.396,15.527-32.98,22.897-49.65c7.429-16.805,14.678-33.687,21.875-50.592c3.298-7.745,6.512-15.526,9.822-23.265 c0.177-0.414-0.418-0.784-0.618-0.362c-6.871,14.463-13.34,29.1-19.711,43.788c-7.559,17.428-15.062,34.881-22.609,52.315 c-3.979,9.191-7.994,18.368-12.125,27.493C76.501,303.752,76.957,304.029,77.111,303.712z" fill="#ffffff"/></g></svg>