<?xml version="1.0" encoding="UTF-8" standalone="no"?><svg xmlns="http://www.w3.org/2000/svg" xmlns:xlink="http://www.w3.org/1999/xlink" fill="#000000" height="409.4" preserveAspectRatio="xMidYMid meet" version="1" viewBox="-0.2 -0.1 347.4 409.4" width="347.4" zoomAndPan="magnify"><defs><clipPath id="a"><path d="M 188 115 L 229 115 L 229 409.230469 L 188 409.230469 Z M 188 115"/></clipPath><clipPath id="b"><path d="M 266 210 L 347.140625 210 L 347.140625 289 L 266 289 Z M 266 210"/></clipPath></defs><g><g id="change1_1"><path d="M 194.511719 120.421875 C 207.660156 109.605469 217.386719 94.78125 222.277344 78.484375 C 227.339844 61.632812 226.886719 43.390625 221.261719 26.738281 C 218.039062 17.203125 213.199219 8.3125 206.933594 0.441406 C 206.554688 -0.03125 205.605469 -0.148438 205.113281 0.207031 C 187.238281 13.101562 169.007812 27.53125 159.46875 47.988281 C 154.917969 57.753906 152.335938 68.644531 153.347656 79.449219 C 154.25 89.074219 158.0625 98.105469 164.480469 105.355469 C 171.300781 113.0625 180.917969 118.292969 191.320312 118.535156 C 193.253906 118.578125 193.25 115.578125 191.320312 115.535156 C 173.230469 115.113281 159.164062 98.804688 156.621094 81.738281 C 153.484375 60.703125 164.640625 40.472656 178.835938 25.835938 C 187.234375 17.175781 196.867188 9.839844 206.628906 2.796875 C 206.023438 2.71875 205.417969 2.640625 204.8125 2.5625 C 215.503906 15.992188 221.800781 32.859375 222.710938 49.988281 C 223.597656 66.660156 219.210938 83.28125 210.496094 97.496094 C 205.660156 105.386719 199.535156 112.421875 192.390625 118.300781 C 190.898438 119.527344 193.03125 121.636719 194.511719 120.421875" fill="#2679b1"/></g><g id="change1_2"><path d="M 192.566406 117.394531 C 180.273438 109.660156 176.75 93.328125 179.234375 79.835938 C 182.484375 62.210938 193.476562 47.511719 201.585938 31.925781 C 206.191406 23.074219 209.953125 13.765625 211.152344 3.796875 C 211.382812 1.882812 208.382812 1.898438 208.152344 3.796875 C 205.945312 22.164062 194.570312 37.558594 186.097656 53.453125 C 178.371094 67.949219 172.441406 84.453125 177.269531 100.878906 C 179.546875 108.628906 184.144531 115.640625 191.050781 119.988281 C 192.691406 121.019531 194.195312 118.421875 192.566406 117.394531" fill="#2679b1"/></g><g clip-path="url(#a)" id="change1_12"><path d="M 188.828125 117.761719 C 199.925781 132.285156 205.109375 150.234375 206.554688 168.265625 C 208.160156 188.246094 205.265625 208.140625 201.894531 227.792969 C 198.371094 248.347656 194.550781 268.871094 194.246094 289.789062 C 193.964844 309.289062 196.214844 328.839844 200.832031 347.785156 C 205.449219 366.730469 212.472656 385.105469 221.71875 402.273438 C 222.84375 404.371094 224.007812 406.445312 225.203125 408.503906 C 226.167969 410.175781 228.761719 408.664062 227.792969 406.988281 C 217.96875 390.03125 210.398438 371.824219 205.253906 352.914062 C 200.132812 334.097656 197.414062 314.644531 197.234375 295.144531 C 197.039062 274.265625 200.410156 253.800781 203.972656 233.296875 C 207.429688 213.40625 210.808594 193.296875 209.859375 173.03125 C 209.019531 155.117188 204.945312 136.910156 195.199219 121.636719 C 194.019531 119.785156 192.753906 117.992188 191.421875 116.246094 C 190.265625 114.730469 187.65625 116.226562 188.828125 117.761719" fill="#2679b1"/></g><g id="change1_3"><path d="M 188.644531 118.007812 C 193.015625 133.859375 188.140625 150.820312 178.640625 163.847656 C 168.6875 177.496094 153.472656 186.546875 137.824219 192.230469 C 133.878906 193.664062 129.867188 194.90625 125.8125 195.988281 C 122.40625 196.894531 117.414062 198.558594 114.523438 195.625 C 111.9375 193.007812 111.894531 188.148438 111.671875 184.71875 C 111.410156 180.625 111.535156 176.503906 112.027344 172.433594 C 113.984375 156.191406 122.015625 140.726562 134.433594 130.046875 C 146.753906 119.453125 163.097656 113.636719 179.332031 113.949219 C 181.304688 113.988281 183.273438 114.121094 185.238281 114.332031 C 187.152344 114.539062 187.140625 111.539062 185.238281 111.332031 C 168.09375 109.476562 150.335938 114.390625 136.472656 124.621094 C 122.507812 134.921875 112.984375 150.488281 109.777344 167.519531 C 108.980469 171.746094 108.550781 176.050781 108.539062 180.351562 C 108.527344 184.542969 108.679688 189.097656 109.871094 193.144531 C 111.089844 197.277344 114.085938 200.019531 118.476562 200.21875 C 122.785156 200.414062 127.300781 198.757812 131.367188 197.53125 C 148.308594 192.417969 164.933594 184.082031 176.886719 170.742188 C 188.285156 158.023438 195.175781 140.515625 192.804688 123.339844 C 192.519531 121.265625 192.09375 119.226562 191.539062 117.207031 C 191.027344 115.351562 188.132812 116.140625 188.644531 118.007812" fill="#2679b1"/></g><g id="change1_4"><path d="M 187.957031 116.835938 C 173.515625 120.335938 160.15625 127.953125 149.664062 138.464844 C 144.40625 143.730469 139.882812 149.730469 136.28125 156.242188 C 132.714844 162.6875 129.90625 169.515625 126.589844 176.085938 C 122.933594 183.335938 118.546875 190.46875 111.953125 195.410156 C 110.429688 196.558594 111.921875 199.160156 113.46875 198.003906 C 125.402344 189.050781 130.300781 174.617188 136.757812 161.777344 C 140.078125 155.171875 144.058594 148.992188 149.023438 143.492188 C 153.9375 138.050781 159.589844 133.304688 165.804688 129.414062 C 172.890625 124.976562 180.628906 121.699219 188.753906 119.730469 C 190.628906 119.273438 189.835938 116.382812 187.957031 116.835938" fill="#2679b1"/></g><g id="change1_5"><path d="M 212.078125 370.410156 C 211.839844 348.648438 214.996094 326.925781 221.257812 306.085938 C 227.535156 285.183594 236.921875 265.234375 249.046875 247.082031 C 255.855469 236.894531 263.535156 227.316406 271.996094 218.457031 C 273.328125 217.058594 271.210938 214.933594 269.875 216.335938 C 254.578125 232.351562 241.804688 250.738281 232.019531 270.601562 C 222.292969 290.347656 215.449219 311.519531 211.910156 333.246094 C 209.90625 345.527344 208.941406 357.96875 209.078125 370.410156 C 209.101562 372.339844 212.101562 372.34375 212.078125 370.410156" fill="#2679b1"/></g><g id="change1_6"><path d="M 270.878906 216.320312 C 284.34375 210.230469 293.007812 196.25 295.050781 181.917969 C 297.585938 164.144531 291.46875 146.570312 282.679688 131.351562 C 277.648438 122.632812 271.730469 114.472656 265.828125 106.335938 C 265.132812 105.378906 263.929688 105.375 263.238281 106.335938 C 254.1875 118.859375 248.644531 133.757812 247.121094 149.121094 C 245.613281 164.347656 248.367188 179.796875 254.722656 193.691406 C 258.265625 201.441406 262.957031 208.628906 268.585938 215.027344 C 269.863281 216.480469 271.976562 214.351562 270.707031 212.90625 C 261.019531 201.890625 254.355469 188.363281 251.394531 174.007812 C 248.398438 159.472656 249.480469 144.289062 254.238281 130.25 C 256.953125 122.246094 260.878906 114.695312 265.828125 107.847656 C 264.964844 107.847656 264.101562 107.847656 263.238281 107.847656 C 273.285156 121.703125 283.632812 135.890625 289.011719 152.332031 C 293.914062 167.316406 294.46875 184.15625 286.289062 198.109375 C 282.320312 204.882812 276.550781 210.480469 269.363281 213.730469 C 267.609375 214.523438 269.132812 217.109375 270.878906 216.320312" fill="#2679b1"/></g><g clip-path="url(#b)" id="change1_13"><path d="M 269.019531 217.835938 C 282.375 211.511719 298.304688 214.988281 309.957031 223.296875 C 321.859375 231.785156 329.796875 244.789062 335.28125 258.097656 C 338.808594 266.652344 341.5 275.511719 344.1875 284.355469 C 344.535156 283.742188 344.886719 283.125 345.234375 282.511719 C 331.527344 287.511719 315.972656 285.828125 303.242188 278.867188 C 296.96875 275.433594 291.324219 270.707031 287.105469 264.90625 C 282.066406 257.96875 279.023438 249.839844 277.15625 241.523438 C 274.980469 231.820312 274.339844 221.859375 273.746094 211.953125 C 273.632812 210.035156 270.632812 210.023438 270.746094 211.953125 C 271.816406 229.871094 273.09375 249.054688 283.207031 264.519531 C 291.539062 277.261719 305.726562 285.65625 320.707031 287.8125 C 329.210938 289.035156 337.941406 288.355469 346.03125 285.402344 C 346.777344 285.132812 347.332031 284.386719 347.078125 283.558594 C 342.265625 267.710938 337.324219 251.476562 327.824219 237.699219 C 319.40625 225.492188 307.371094 215.3125 292.496094 212.4375 C 284.0625 210.808594 275.308594 211.550781 267.503906 215.246094 C 265.761719 216.070312 267.28125 218.660156 269.019531 217.835938" fill="#2679b1"/></g><g id="change1_7"><path d="M 272.574219 217.210938 C 284.792969 220.328125 293.460938 230.246094 300.414062 240.1875 C 307.511719 250.328125 313.511719 261.386719 322.652344 269.925781 C 327.597656 274.546875 333.386719 278.222656 339.957031 280.011719 C 341.820312 280.523438 342.617188 277.628906 340.753906 277.121094 C 328.597656 273.808594 320.035156 263.8125 313.113281 253.851562 C 306.054688 243.683594 300.011719 232.640625 290.785156 224.1875 C 285.800781 219.613281 279.96875 216 273.371094 214.316406 C 271.5 213.839844 270.703125 216.730469 272.574219 217.210938" fill="#2679b1"/></g><g id="change1_8"><path d="M 270.523438 213.335938 C 277.027344 201.976562 277.734375 188.570312 276.09375 175.851562 C 274.277344 161.726562 269.59375 148.21875 267.007812 134.246094 C 265.472656 125.964844 264.726562 117.441406 265.949219 109.066406 C 266.226562 107.179688 263.335938 106.363281 263.058594 108.269531 C 258.894531 136.730469 275.515625 163.042969 273.734375 191.394531 C 273.285156 198.546875 271.507812 205.578125 267.933594 211.820312 C 266.972656 213.496094 269.5625 215.011719 270.523438 213.335938" fill="#2679b1"/></g><g id="change1_9"><path d="M 208.394531 362.757812 C 206.636719 356.949219 204.417969 351.28125 201.835938 345.789062 C 197.550781 336.683594 192.195312 328.109375 185.917969 320.246094 C 177.882812 310.191406 168.246094 301.441406 157.46875 294.398438 C 145.277344 286.433594 131.632812 280.71875 117.433594 277.519531 C 107.988281 275.390625 98.277344 274.320312 88.59375 274.40625 C 87.871094 274.410156 87.144531 274.425781 86.417969 274.445312 C 84.492188 274.496094 84.484375 277.496094 86.417969 277.445312 C 108.925781 276.859375 131.550781 282.523438 150.992188 293.914062 C 171.207031 305.765625 187.386719 323.542969 197.859375 344.453125 C 200.9375 350.59375 203.511719 356.980469 205.503906 363.554688 C 206.0625 365.398438 208.957031 364.613281 208.394531 362.757812" fill="#2679b1"/></g><g id="change1_10"><path d="M 89.140625 275.890625 C 83.84375 287.460938 75.484375 297.566406 65.070312 304.886719 C 53.675781 312.894531 40.089844 317.355469 26.171875 317.746094 C 17.941406 317.980469 9.746094 316.808594 1.910156 314.273438 C 2.277344 314.757812 2.644531 315.238281 3.011719 315.722656 C 2.683594 300.519531 9.5625 285.636719 20.914062 275.605469 C 32.550781 265.328125 48.59375 261.414062 63.765625 264.289062 C 72.296875 265.910156 80.4375 269.546875 87.113281 275.128906 C 88.582031 276.359375 90.71875 274.25 89.234375 273.007812 C 76.621094 262.464844 59.40625 258.300781 43.304688 261.378906 C 27.289062 264.445312 13.6875 275.25 6.21875 289.644531 C 2.054688 297.671875 -0.183594 306.664062 0.0117188 315.722656 C 0.0273438 316.40625 0.472656 316.960938 1.113281 317.167969 C 15.445312 321.808594 31.164062 321.964844 45.597656 317.648438 C 58.636719 313.753906 70.457031 306.140625 79.519531 296.003906 C 84.484375 290.449219 88.628906 284.179688 91.730469 277.40625 C 92.53125 275.660156 89.945312 274.136719 89.140625 275.890625" fill="#2679b1"/></g><g id="change1_11"><path d="M 86.144531 275.03125 C 74.070312 271.859375 61.023438 273.277344 49.847656 278.804688 C 44.058594 281.671875 39.070312 285.730469 34.53125 290.289062 C 29.761719 295.078125 25.429688 300.308594 20.398438 304.835938 C 17.738281 307.226562 14.890625 309.410156 11.773438 311.167969 C 10.292969 312.003906 8.765625 312.742188 7.171875 313.324219 C 6.347656 313.625 5.507812 313.894531 4.660156 314.121094 C 4.296875 314.214844 3.8125 314.25 3.472656 314.40625 C 2.472656 314.488281 2.695312 315.089844 4.144531 316.21875 C 3.863281 316.769531 3.292969 316.578125 2.441406 315.652344 C 3.003906 317.492188 5.902344 316.707031 5.335938 314.855469 C 4.359375 311.664062 -0.242188 314.714844 1.746094 316.914062 C 2.789062 318.074219 4.804688 317.207031 6.042969 316.847656 C 7.722656 316.363281 9.359375 315.71875 10.941406 314.972656 C 17.378906 311.945312 22.753906 307.039062 27.628906 301.953125 C 32.816406 296.539062 37.671875 290.683594 43.679688 286.132812 C 49.1875 281.960938 55.585938 279.066406 62.320312 277.546875 C 69.898438 275.839844 77.832031 275.949219 85.347656 277.921875 C 87.214844 278.414062 88.011719 275.523438 86.144531 275.03125" fill="#2679b1"/></g></g></svg>