<?xml version="1.0" encoding="UTF-8" standalone="no"?><svg xmlns="http://www.w3.org/2000/svg" xmlns:xlink="http://www.w3.org/1999/xlink" fill="#1f2b5b" height="477.1" preserveAspectRatio="xMidYMid meet" version="1" viewBox="10.5 14.8 490.1 477.1" width="490.1" zoomAndPan="magnify"><g id="change1_1"><path d="M363.7,28.6c-18.6-13.8-37.1-3.7-54.7,6.1C207.3,86.6,118.4,160,36.1,238.3c-7.4,7-16.7,13.9-21.2,23.3 c-4.1,8.7-4.4,18.7-0.8,27.6c28.2,62.3,72,116.4,117.5,166.9c13.7,14.1,26.5,35.8,48.8,33.9c10.3-0.8,18.7-6.9,27.3-12.1 c101.3-62,191.6-140.2,279.4-219.6c8.3-4.8,12.9-16.2,13.2-25.5c0.3-10.5-5-18.7-10.3-27.4C451.7,144.1,411.6,82.8,363.7,28.6 L363.7,28.6z M42.6,244.8c85.4-81.3,178-157.2,284.7-208.9c5.7-2.7,11.3-4.8,17.1-4.8c-12.1,61.4-26.4,122.4-40.8,183.3 c-20.2-19.4-50.5-4-47.3,23.8c0.1,0.8-0.5,1.6-1.3,1.6c-0.3,0-0.6,0-0.8-0.2c-29.7-14.2-53,14.9-36,42 c-65.8,0.3-131.9,0.4-197.1-8.6C22.1,260.8,34.2,252.7,42.6,244.8L42.6,244.8z M474.6,197.8c3,4.9,6.1,9.8,9,14.7 c2.7,4.5,5.9,9,7,14.3c-50.1,15.2-102,20.1-154.2,19.2c-5.4-0.1-5.4,8.2,0,8.4c52,1.8,104.5-3.9,154.4-18.7 c-15,26.7-194.6,180.8-301.4,243.2c-3.4,1.7-7.2,2.7-11.1,2.7c27.7-49,49-101.2,63.6-155.5c1.3-5.1-6.5-7.3-8-2.2 c-14.7,54.6-36.6,106.9-63.4,156.6c-7.5-2-12.6-8.3-17.6-13.8C101.8,411.1,50.7,351.5,21.4,281.2c67.3,10.2,135.7,9.1,203.7,8.7 c6.1,5.4,13.9,8.2,21.5,10.1c12.9,3.1,37.1,1.6,47.8,0.7c3.3-0.3,6.1-2.4,7.3-5.4c5.6-13.8,19.8-53.2,8.6-72.5 c14.8-63.2,29.6-126.4,42.3-190c10.2,4.1,16.5,15.4,23,23.6C411.2,101.7,444.2,148.9,474.6,197.8L474.6,197.8z"/></g></svg>