<?xml version="1.0" encoding="UTF-8" standalone="no"?><svg xmlns="http://www.w3.org/2000/svg" xmlns:xlink="http://www.w3.org/1999/xlink" fill="#000000" height="756.4" preserveAspectRatio="xMidYMid meet" version="1" viewBox="-1.6 -0.2 492.6 756.4" width="492.6" zoomAndPan="magnify"><g><g id="change1_1"><path d="m316.4 197.98h93.014a35.633 35.633 0 0 1 35.633 35.633v220.75a35.633 35.633 0 0 1 -35.633 35.633h-93.014a35.633 35.633 0 0 1 -35.633 -35.633v-220.75a35.633 35.633 0 0 1 35.633 -35.633" fill="#ffffff" fill-rule="evenodd" stroke="#ffffff" stroke-width="0.72" transform="translate(-119.38 -172.43)"/></g><g id="change2_3"><path d="m309.63 177.52-143.44 52.768-24.374 100.82s-18.572 97.022-21.05 180.59 1.1079 207.18 1.1079 207.18 4.8532 59.229 4.4317 77.554 1.0954 24.898 1.0954 24.898 12.121-7.1736 39.898-12.711 40.993-2.2158 40.993-2.2158l-8.8633-188.35 14.403-193.89 14.403 105.25-23.266 156.22" fill="inherit" stroke="#000000" transform="translate(-119.38 -172.43)"/></g><g id="change2_4"><path d="m257.04 349.94s-30.331 171.78-41.41 259.31-16.811 178.01-25.065 265.85c-1.3122 13.965 120.36 53.523 137.38 32.13s24.374-100.82 24.374-100.82l19.774-113.65-0.91915-104.61-0.4135-36.617 1.5012-32.073" fill="inherit" stroke="#000000" transform="translate(-119.38 -172.43)"/></g><g id="change3_2"><path d="m292.75 182.07s-19.676 41.516-38.235 45.718-38.426-10.918-38.426-10.918l-5.1164-0.0447c-12.554-0.10957 27.736 121.59 64.304 182.85s96.984 121.99 96.984 121.99-59.851-211.2-66.475-264.79 3.6893-69.565 3.6368-76.195-0.0707-3.7394-0.0707-3.7394z" fill="#2679b1" stroke="#2679b1" transform="translate(-119.38 -172.43)"/></g><path d="m309.13 177.02s33.764-3.8534 52.28-4.0915 57.28 3.4096 57.28 3.4096" fill="none" stroke="#000000" transform="translate(-119.38 -172.43)"/><g><g id="change2_1"><path d="m309.63 177.52-143.44 52.768-24.374 100.82s-18.572 97.022-21.05 180.59 1.1079 207.18 1.1079 207.18 4.8532 59.229 4.4317 77.554 1.0954 27.71 1.0954 27.71 13.326-9.9858 39.898-15.523 40.993-2.2158 40.993-2.2158l-8.8633-188.35 14.403-193.89 14.403 105.25-23.266 156.22" fill="inherit" stroke="#000000" transform="matrix(-1 0 0 1 608.77 -172.43)"/></g><g id="change2_2"><path d="m257.04 349.94s-30.331 171.78-41.41 259.31-16.811 178.01-25.065 265.85c-1.3122 13.965 120.36 53.523 137.38 32.13s24.374-100.82 24.374-100.82l19.774-113.65-0.91915-104.61-0.4135-36.617 1.5012-32.073" fill="inherit" stroke="#000000" transform="matrix(-1 0 0 1 608.77 -172.43)"/></g><g id="change3_1"><path d="m292.75 182.07s-19.676 41.516-38.235 45.718-38.426-10.918-38.426-10.918l-5.1164-0.0447c-12.554-0.10957 27.736 121.59 64.304 182.85s96.984 121.99 96.984 121.99-59.851-211.2-66.475-264.79 3.4095-75.513 3.4095-75.513l0.38394-5.1032z" fill="#2679b1" stroke="#2679b1" transform="matrix(-1 0 0 1 608.77 -172.43)"/></g></g><g id="change2_5"><path d="m-201.22 210.06c0 23.906-32.473 43.285-72.531 43.285s-72.531-19.379-72.531-43.285 32.473-43.285 72.531-43.285 72.531 19.379 72.531 43.285z" fill="inherit" fill-rule="evenodd" stroke="#000000" transform="matrix(.07234 0 0 .10837 264.88 258.57)"/></g><g id="change2_6"><path d="m-201.22 210.06c0 23.906-32.473 43.285-72.531 43.285s-72.531-19.379-72.531-43.285 32.473-43.285 72.531-43.285 72.531 19.379 72.531 43.285z" fill="inherit" fill-rule="evenodd" stroke="#000000" transform="matrix(.07234 0 0 .10837 264.88 62.77)"/></g><g id="change2_7"><path d="m-201.22 210.06c0 23.906-32.473 43.285-72.531 43.285s-72.531-19.379-72.531-43.285 32.473-43.285 72.531-43.285 72.531 19.379 72.531 43.285z" fill="inherit" fill-rule="evenodd" stroke="#000000" transform="matrix(.07234 0 0 .10837 264.88 160.67)"/></g></g></svg>