<?xml version="1.0" encoding="UTF-8" standalone="no"?><svg xmlns="http://www.w3.org/2000/svg" xmlns:xlink="http://www.w3.org/1999/xlink" fill="#e38e99" height="675.4" preserveAspectRatio="xMidYMid meet" version="1" viewBox="-0.9 -1.1 844.4 675.4" width="844.4" zoomAndPan="magnify"><g id="change1_1"><path d="M656.4,78.2c1.4-6.9-3.3-17-8.4-22.6s-21.3-0.3-27.4,7.7c-2.4,3.1-4,6.9-5.5,10.5c-21.9,51.1-44.3,102-65.5,153.4 c-11.6,28.2-21.2,57.3-31.7,86c-3.8-6.7-4.2-12.8-3.8-18.8c5.8-81.6,11.7-163.3,17.6-244.9c0.7-10.3,1.3-20.7,0.7-30.9 c-0.5-8.1-3.3-15.9-13-17.8c-9.3-1.9-17.8-0.4-22.8,8.5c-5.4,9.7-10.3,19.7-14.7,29.9c-17.6,41.7-34.3,83.8-52.3,125.4 c-12.3,28.3-27.7,55-48.6,77.8l-4.9-1.5c-0.4-5.4-0.5-10.7-1.2-16.1c-2.1-16.5-2.8-33.4-7.1-49.3c-8.7-32.2-37.2-42.1-65.2-23.9 c-5.3,3.4-9.7,8.7-15.4,11.1c-19.8,8.2-30.5,24.3-40.1,42.2c-25.6,47.6-32.4,99.3-31.9,152.1c0.2,22.1,1.7,44.5,12.5,65 s27.7,27.6,49.4,21.3c31.9-9.4,54.5-29.5,67.1-59.6c9.4-22.5,15.2-46.6,23.2-69.8c2.1-6.2,5.5-12.9,10.2-17.1 c30.5-27.3,56-58.4,73.8-95.5c4.6-9.5,9.6-18.7,14.5-28.1c3.1,4.3,3.4,7.4,3.1,10.4c-3.3,44.3-7.3,88.6-9.7,132.9 c-2.4,42.8-3.7,85.7-4.4,128.6c-0.3,17.2-0.5,35.1,10.1,50.1c30.7,2.9,47.1-7.5,57.3-37.7c17.7-52.7,33.5-106,52.1-158.4 c21-59.1,44.3-117.4,66.5-176.1C646.5,108.3,653.3,93.6,656.4,78.2z M275.8,394.3c-16.1-29.3-12.3-59.2-12.4-88.7l54.3,27 C312.2,355,304.8,379.4,275.8,394.3z M328.2,280.4c-19.4-1.3-27-10.6-28.8-24.5c-3.2-25-1.5-48.9,22.1-69.5 C337.8,218.2,331.8,248.7,328.2,280.4L328.2,280.4z M290.4,535.7c-27.4,8.2-55.1,15.2-82.2,24.4c-39.8,13.5-79.2,28.6-118.8,42.7 c-7.6,2.7-15.9,3.7-26.4,6.1c1.5-80,3.7-156.1,4.1-232.1c0.4-62.4-2-124.9-1.7-187.3c0.1-15.8-8.2-23.2-18.9-30 c-11.5-7.3-22.3-3.2-25.9,9.9c-2,7.6-2.1,15.7-2.5,23.6C12.4,288.1,5.8,383.2,1.5,478.5c-2.4,52.4-1.4,104.9-0.8,157.3 c0.2,23.4,14.2,35.3,37.7,36.9s46.2-1.8,67.7-10.8c25.6-10.8,50.2-23.8,75.6-35.2c40.6-18.2,81.4-35.8,122-53.8 c9.3-4.1,19.5-7.5,22.4-20.7C316.1,542.8,307.8,530.5,290.4,535.7z M841.9,99.2c-1.6-9.5-9-15.3-18.7-15.5c-8.6-0.1-18-0.1-25.7,3.2 c-15.2,6.5-30.9,13.5-43.8,23.6c-27.9,22-54.4,45.8-81.2,69.3c-15.9,14-26.2,32-32.7,51.9c-7.3,22.5-9.1,44.3,15.8,57.7 c-6.2,20.7-13.9,40-17.7,60c-6.4,34.1,7.6,53.4,41.6,59.5c9.1,1.6,19.5,1.5,28.3-1.3c27.2-8.6,54.1-18.3,80.6-29 c5.3-2.1,11.2-10.3,11.3-15.8c0.1-8.4-7.5-12.7-16.4-14.2c-14.6-2.4-26.4,4.5-38.3,10.6c-19.3,9.9-39.7,15.3-63,18.4 c-4.7-24.1,2.8-42.4,10.1-60.8c4.6-11.7,11.8-18.8,24.7-23.1c24.6-8.1,43.9-25.2,61.1-44.4c15.2-16.9,6.8-45.2-19.6-47.4 c-17.6-1.4-33.1,2.1-46.2,14.6c-4.1,3.9-8.5,7.6-12.8,11.3c-0.6-5.6,0.8-9.3,3.3-11.8c18.6-18.5,36.7-37.5,56.3-54.8 c20.8-18.3,41.9-36.5,69.4-44.9C836.3,114.1,843.5,108.6,841.9,99.2z" fill="inherit"/></g></svg>