<?xml version="1.0" encoding="UTF-8" standalone="no"?><svg xmlns="http://www.w3.org/2000/svg" xmlns:xlink="http://www.w3.org/1999/xlink" fill="#000000" height="25.6" preserveAspectRatio="xMidYMid meet" version="1" viewBox="0.0 0.0 459.5 25.6" width="459.5" zoomAndPan="magnify"><defs><clipPath id="a"><path d="M 0 0 L 459.539062 0 L 459.539062 25.601562 L 0 25.601562 Z M 0 0"/></clipPath></defs><g><g clip-path="url(#a)" id="change1_1"><path d="M 205.863281 17.988281 C 203.457031 18.628906 201.269531 19.230469 199.535156 20.796875 C 199.152344 21.144531 198.742188 21.925781 198.890625 22.277344 C 199.070312 22.699219 199.804688 23.058594 200.339844 23.132812 C 202.976562 23.492188 205.558594 21.1875 205.863281 17.988281 Z M 253.546875 17.917969 C 253.695312 21.160156 256.460938 23.613281 259.136719 23.109375 C 259.652344 23.011719 260.265625 22.589844 260.507812 22.144531 C 260.644531 21.890625 260.222656 21.164062 259.871094 20.84375 C 258.144531 19.25 255.929688 18.6875 253.546875 17.917969 Z M 114.328125 2.191406 C 113.871094 2.226562 113.410156 2.230469 112.957031 2.300781 C 109.746094 2.796875 106.988281 5.433594 106.585938 8.371094 C 106.226562 11 108.054688 13.792969 111.101562 15.117188 C 111.59375 15.332031 112.398438 15.484375 112.765625 15.234375 C 115.460938 13.417969 117.820312 11.25 118.84375 8.03125 C 119.921875 4.644531 117.917969 2.105469 114.328125 2.191406 Z M 345.140625 2.011719 C 341.386719 2.082031 339.355469 4.707031 340.546875 8.195312 C 341.601562 11.292969 343.902344 13.417969 346.519531 15.207031 C 346.867188 15.445312 347.574219 15.433594 347.980469 15.246094 C 350.535156 14.082031 352.496094 12.363281 352.761719 9.347656 C 352.976562 6.863281 351.300781 4.296875 348.597656 3.066406 C 347.507812 2.570312 346.296875 2.351562 345.140625 2.011719 Z M 0 21.984375 C 4.5625 18.738281 9.605469 16.773438 14.984375 15.566406 C 24.984375 13.324219 35.035156 13.441406 45.039062 15.269531 C 52.984375 16.722656 60.851562 18.621094 68.742188 20.367188 C 76.007812 21.972656 83.316406 23.011719 90.785156 22.378906 C 96.613281 21.886719 102.246094 20.628906 107.601562 18.234375 C 108.230469 17.953125 108.839844 17.628906 109.441406 17.304688 C 109.5625 17.238281 109.636719 17.085938 109.859375 16.824219 C 109.273438 16.394531 108.683594 15.972656 108.105469 15.53125 C 102.984375 11.636719 103.1875 5.328125 108.5625 1.769531 C 111.046875 0.125 113.726562 -0.441406 116.640625 0.445312 C 119.914062 1.441406 121.652344 4.410156 120.917969 7.765625 C 120.355469 10.328125 118.863281 12.335938 117.082031 14.160156 C 116.394531 14.867188 115.648438 15.511719 114.515625 16.574219 C 116.695312 16.878906 118.449219 17.253906 120.21875 17.347656 C 128.3125 17.777344 136.191406 16.351562 143.988281 14.355469 C 151.601562 12.40625 159.160156 10.207031 166.832031 8.527344 C 175.925781 6.535156 185.136719 6.085938 194.375 7.742188 C 200.058594 8.761719 203.75 10.707031 207.453125 14.773438 C 210.691406 14.101562 213.960938 13.394531 217.246094 12.753906 C 228.191406 10.617188 238.996094 11.582031 249.6875 14.367188 C 251.171875 14.753906 252.089844 14.710938 253.230469 13.410156 C 256.296875 9.910156 260.578125 8.578125 264.984375 7.765625 C 274.914062 5.925781 284.792969 6.675781 294.542969 8.9375 C 302.121094 10.699219 309.589844 12.933594 317.15625 14.769531 C 324.140625 16.460938 331.207031 17.777344 338.453125 17.378906 C 340.414062 17.269531 342.359375 16.9375 344.3125 16.707031 C 344.394531 16.515625 344.480469 16.324219 344.5625 16.132812 C 344.007812 15.679688 343.363281 15.296875 342.914062 14.753906 C 341.648438 13.234375 340.207031 11.789062 339.296875 10.070312 C 336.570312 4.925781 339.417969 0.21875 345.230469 0 C 349.074219 -0.144531 353.429688 2.90625 354.589844 6.558594 C 355.476562 9.371094 354.839844 11.867188 352.863281 13.976562 C 351.890625 15.019531 350.722656 15.878906 349.464844 16.972656 C 350.164062 17.371094 350.773438 17.789062 351.4375 18.085938 C 360.679688 22.238281 370.429688 23.542969 380.332031 22.054688 C 388.914062 20.761719 397.351562 18.507812 405.859375 16.738281 C 415.613281 14.710938 425.433594 13.332031 435.429688 14.195312 C 441.621094 14.730469 447.667969 15.988281 453.40625 18.457031 C 455.484375 19.347656 457.496094 20.386719 459.539062 21.359375 C 459.472656 21.523438 459.40625 21.6875 459.34375 21.847656 C 457.378906 21.277344 455.378906 20.800781 453.449219 20.125 C 439.898438 15.371094 426.121094 14.707031 412.136719 17.761719 C 404.089844 19.519531 396.085938 21.507812 388.007812 23.101562 C 376.351562 25.402344 364.769531 25.277344 353.480469 21.039062 C 351.628906 20.347656 349.898438 19.332031 348.078125 18.546875 C 347.429688 18.265625 346.601562 17.960938 345.972656 18.125 C 338.6875 20.027344 331.378906 19.5625 324.160156 18.066406 C 316.46875 16.46875 308.871094 14.433594 301.226562 12.605469 C 292.140625 10.429688 282.984375 8.78125 273.578125 9.195312 C 268.824219 9.402344 264.136719 9.984375 259.710938 11.886719 C 257.808594 12.703125 256 13.671875 254.523438 15.699219 C 255.378906 16.019531 256.15625 16.21875 256.847656 16.585938 C 258.519531 17.476562 260.324219 18.238281 261.757812 19.433594 C 264.058594 21.347656 263.269531 24.351562 260.394531 25.300781 C 256.558594 26.570312 251.507812 23.269531 251 19.144531 C 250.925781 18.546875 250.933594 17.9375 250.898438 17.222656 C 236.761719 12.757812 222.679688 12.761719 208.453125 17.210938 C 208.402344 17.96875 208.402344 18.722656 208.292969 19.460938 C 207.773438 22.996094 203.308594 26.167969 199.753906 25.515625 C 198.160156 25.222656 196.835938 24.503906 196.394531 22.804688 C 195.972656 21.183594 196.683594 19.953125 197.976562 19.054688 C 198.972656 18.363281 200.003906 17.699219 201.089844 17.164062 C 202.175781 16.625 203.351562 16.257812 204.601562 15.773438 C 204.191406 14.367188 203.023438 13.742188 201.96875 13.09375 C 198.585938 11.003906 194.789062 10.128906 190.90625 9.632812 C 181.222656 8.398438 171.6875 9.503906 162.257812 11.703125 C 154.304688 13.554688 146.445312 15.820312 138.457031 17.488281 C 133.621094 18.5 128.636719 18.988281 123.699219 19.191406 C 120.390625 19.328125 117.046875 18.523438 113.710938 18.214844 C 112.941406 18.140625 112.015625 18.144531 111.375 18.496094 C 102.460938 23.429688 92.820312 24.746094 82.804688 24.488281 C 74.316406 24.273438 66.253906 21.898438 58.085938 19.96875 C 49.839844 18.019531 41.554688 16.273438 33.027344 15.96875 C 23.824219 15.640625 14.917969 17.03125 6.230469 20.03125 C 4.175781 20.738281 2.078125 21.335938 0 21.984375" fill="#ffffff"/></g></g></svg>